<svg width="244" height="251" viewBox="0 0 244 251" fill="none" xmlns="http://www.w3.org/2000/svg">
<rect width="244" height="251" rx="8" fill="#FDFDFD"/>
<g filter="url(#filter0_d_1_170)">
<path d="M17 41C17 34.3726 22.3726 29 29 29H215C221.627 29 227 34.3726 227 41V86C227 92.6274 221.627 98 215 98H29C22.3726 98 17 92.6274 17 86V41Z" fill="#248CD8"/>
</g>
<g filter="url(#filter1_d_1_170)">
<rect x="17" y="105" width="210" height="57" rx="12" fill="#FDFDFD"/>
</g>
<path d="M31.1136 80V62.5455H37.2159C38.4318 62.5455 39.4347 62.7557 40.2244 63.1761C41.0142 63.5909 41.6023 64.1506 41.9886 64.8551C42.375 65.554 42.5682 66.3295 42.5682 67.1818C42.5682 67.9318 42.4347 68.5511 42.1676 69.0398C41.9063 69.5284 41.5597 69.9148 41.1278 70.1989C40.7017 70.483 40.2386 70.6932 39.7386 70.8295V71C40.2727 71.0341 40.8097 71.2216 41.3494 71.5625C41.8892 71.9034 42.3409 72.392 42.7045 73.0284C43.0682 73.6648 43.25 74.4432 43.25 75.3636C43.25 76.2386 43.0511 77.0256 42.6534 77.7244C42.2557 78.4233 41.6278 78.9773 40.7699 79.3864C39.9119 79.7955 38.7955 80 37.4205 80H31.1136ZM33.2273 78.125H37.4205C38.8011 78.125 39.7813 77.858 40.3608 77.3239C40.946 76.7841 41.2386 76.1307 41.2386 75.3636C41.2386 74.7727 41.0881 74.2273 40.7869 73.7273C40.4858 73.2216 40.0568 72.8182 39.5 72.517C38.9432 72.2102 38.2841 72.0568 37.5227 72.0568H33.2273V78.125ZM33.2273 70.2159H37.1477C37.7841 70.2159 38.358 70.0909 38.8693 69.8409C39.3864 69.5909 39.7955 69.2386 40.0966 68.7841C40.4034 68.3295 40.5568 67.7955 40.5568 67.1818C40.5568 66.4148 40.2898 65.7642 39.7557 65.2301C39.2216 64.6903 38.375 64.4205 37.2159 64.4205H33.2273V70.2159ZM51.9389 80.2727C50.6776 80.2727 49.5895 79.9943 48.6747 79.4375C47.7656 78.875 47.0639 78.0909 46.5696 77.0852C46.081 76.0739 45.8366 74.8977 45.8366 73.5568C45.8366 72.2159 46.081 71.0341 46.5696 70.0114C47.0639 68.983 47.7514 68.1818 48.6321 67.608C49.5185 67.0284 50.5526 66.7386 51.7344 66.7386C52.4162 66.7386 53.0895 66.8523 53.7543 67.0795C54.419 67.3068 55.0241 67.6761 55.5696 68.1875C56.1151 68.6932 56.5497 69.3636 56.8736 70.1989C57.1974 71.0341 57.3594 72.0625 57.3594 73.2841V74.1364H47.2685V72.3977H55.3139C55.3139 71.6591 55.1662 71 54.8707 70.4205C54.581 69.8409 54.1662 69.3835 53.6264 69.0483C53.0923 68.7131 52.4616 68.5455 51.7344 68.5455C50.9332 68.5455 50.2401 68.7443 49.6548 69.142C49.0753 69.5341 48.6293 70.0455 48.3168 70.6761C48.0043 71.3068 47.848 71.983 47.848 72.7045V73.8636C47.848 74.8523 48.0185 75.6903 48.3594 76.3778C48.706 77.0597 49.1861 77.5795 49.7997 77.9375C50.4134 78.2898 51.1264 78.4659 51.9389 78.4659C52.4673 78.4659 52.9446 78.392 53.3707 78.2443C53.8026 78.0909 54.1747 77.8636 54.4872 77.5625C54.7997 77.2557 55.0412 76.875 55.2116 76.4205L57.1548 76.9659C56.9503 77.625 56.6065 78.2045 56.1236 78.7045C55.6406 79.1989 55.044 79.5852 54.3338 79.8636C53.6236 80.1364 52.8253 80.2727 51.9389 80.2727ZM62.4304 72.125V80H60.419V66.9091H62.3622V68.9545H62.5327C62.8395 68.2898 63.3054 67.7557 63.9304 67.3523C64.5554 66.9432 65.3622 66.7386 66.3509 66.7386C67.2372 66.7386 68.0128 66.9205 68.6776 67.2841C69.3423 67.642 69.8594 68.1875 70.2287 68.9205C70.598 69.6477 70.7827 70.5682 70.7827 71.6818V80H68.7713V71.8182C68.7713 70.7898 68.5043 69.9886 67.9702 69.4148C67.4361 68.8352 66.7031 68.5455 65.7713 68.5455C65.1293 68.5455 64.5554 68.6847 64.0497 68.9631C63.5497 69.2415 63.1548 69.6477 62.8651 70.1818C62.5753 70.7159 62.4304 71.3636 62.4304 72.125ZM79.9467 80.2727C78.6854 80.2727 77.5973 79.9943 76.6825 79.4375C75.7734 78.875 75.0717 78.0909 74.5774 77.0852C74.0888 76.0739 73.8445 74.8977 73.8445 73.5568C73.8445 72.2159 74.0888 71.0341 74.5774 70.0114C75.0717 68.983 75.7592 68.1818 76.6399 67.608C77.5263 67.0284 78.5604 66.7386 79.7422 66.7386C80.424 66.7386 81.0973 66.8523 81.7621 67.0795C82.4268 67.3068 83.032 67.6761 83.5774 68.1875C84.1229 68.6932 84.5575 69.3636 84.8814 70.1989C85.2053 71.0341 85.3672 72.0625 85.3672 73.2841V74.1364H75.2763V72.3977H83.3217C83.3217 71.6591 83.174 71 82.8786 70.4205C82.5888 69.8409 82.174 69.3835 81.6342 69.0483C81.1001 68.7131 80.4695 68.5455 79.7422 68.5455C78.9411 68.5455 78.2479 68.7443 77.6626 69.142C77.0831 69.5341 76.6371 70.0455 76.3246 70.6761C76.0121 71.3068 75.8558 71.983 75.8558 72.7045V73.8636C75.8558 74.8523 76.0263 75.6903 76.3672 76.3778C76.7138 77.0597 77.1939 77.5795 77.8075 77.9375C78.4212 78.2898 79.1342 78.4659 79.9467 78.4659C80.4751 78.4659 80.9524 78.392 81.3786 78.2443C81.8104 78.0909 82.1825 77.8636 82.495 77.5625C82.8075 77.2557 83.049 76.875 83.2195 76.4205L85.1626 76.9659C84.9581 77.625 84.6143 78.2045 84.1314 78.7045C83.6484 79.1989 83.0518 79.5852 82.3416 79.8636C81.6314 80.1364 80.8331 80.2727 79.9467 80.2727ZM94.2564 66.9091V68.6136H87.1996V66.9091H94.2564ZM89.3132 80V65.1023C89.3132 64.3523 89.4893 63.7273 89.8416 63.2273C90.1939 62.7273 90.6513 62.3523 91.2138 62.1023C91.7763 61.8523 92.37 61.7273 92.995 61.7273C93.4893 61.7273 93.8928 61.767 94.2053 61.8466C94.5178 61.9261 94.7507 62 94.9041 62.0682L94.3246 63.8068C94.2223 63.7727 94.0803 63.7301 93.8984 63.679C93.7223 63.6278 93.4893 63.6023 93.1996 63.6023C92.5348 63.6023 92.0547 63.7699 91.7592 64.1051C91.4695 64.4403 91.3246 64.9318 91.3246 65.5795V80H89.3132ZM97.0753 80V66.9091H99.0866V80H97.0753ZM98.098 64.7273C97.706 64.7273 97.3679 64.5938 97.0838 64.3267C96.8054 64.0597 96.6662 63.7386 96.6662 63.3636C96.6662 62.9886 96.8054 62.6676 97.0838 62.4006C97.3679 62.1335 97.706 62 98.098 62C98.4901 62 98.8253 62.1335 99.1037 62.4006C99.3878 62.6676 99.5298 62.9886 99.5298 63.3636C99.5298 63.7386 99.3878 64.0597 99.1037 64.3267C98.8253 64.5938 98.4901 64.7273 98.098 64.7273ZM108.464 66.9091V68.6136H101.68V66.9091H108.464ZM103.657 63.7727H105.668V76.25C105.668 76.8182 105.751 77.2443 105.915 77.5284C106.086 77.8068 106.302 77.9943 106.563 78.0909C106.83 78.1818 107.112 78.2273 107.407 78.2273C107.629 78.2273 107.81 78.2159 107.952 78.1932C108.094 78.1648 108.208 78.142 108.293 78.125L108.702 79.9318C108.566 79.983 108.376 80.0341 108.131 80.0852C107.887 80.142 107.577 80.1705 107.202 80.1705C106.634 80.1705 106.077 80.0483 105.532 79.804C104.992 79.5597 104.543 79.1875 104.185 78.6875C103.833 78.1875 103.657 77.5568 103.657 76.7955V63.7727ZM120.528 69.8409L118.721 70.3523C118.607 70.0511 118.44 69.7585 118.218 69.4744C118.002 69.1847 117.707 68.946 117.332 68.7585C116.957 68.571 116.477 68.4773 115.891 68.4773C115.09 68.4773 114.423 68.6619 113.888 69.0312C113.36 69.3949 113.096 69.858 113.096 70.4205C113.096 70.9205 113.278 71.3153 113.641 71.6051C114.005 71.8949 114.573 72.1364 115.346 72.3295L117.289 72.8068C118.46 73.0909 119.332 73.5256 119.906 74.1108C120.479 74.6903 120.766 75.4375 120.766 76.3523C120.766 77.1023 120.55 77.7727 120.119 78.3636C119.692 78.9545 119.096 79.4205 118.329 79.7614C117.562 80.1023 116.67 80.2727 115.653 80.2727C114.317 80.2727 113.212 79.983 112.337 79.4034C111.462 78.8239 110.908 77.9773 110.675 76.8636L112.585 76.3864C112.766 77.0909 113.11 77.6193 113.616 77.9716C114.127 78.3239 114.795 78.5 115.619 78.5C116.556 78.5 117.3 78.3011 117.852 77.9034C118.408 77.5 118.687 77.017 118.687 76.4545C118.687 76 118.528 75.6193 118.21 75.3125C117.891 75 117.403 74.767 116.744 74.6136L114.562 74.1023C113.363 73.8182 112.482 73.3778 111.92 72.7812C111.363 72.179 111.085 71.4261 111.085 70.5227C111.085 69.7841 111.292 69.1307 111.707 68.5625C112.127 67.9943 112.698 67.5483 113.42 67.2244C114.147 66.9006 114.971 66.7386 115.891 66.7386C117.187 66.7386 118.204 67.0227 118.942 67.5909C119.687 68.1591 120.215 68.9091 120.528 69.8409ZM130.51 80V78.4659L136.271 72.1591C136.947 71.4205 137.504 70.7784 137.942 70.233C138.379 69.6818 138.703 69.1648 138.913 68.6818C139.129 68.1932 139.237 67.6818 139.237 67.1477C139.237 66.5341 139.089 66.0028 138.794 65.554C138.504 65.1051 138.107 64.7585 137.601 64.5142C137.095 64.2699 136.527 64.1477 135.896 64.1477C135.226 64.1477 134.641 64.2869 134.141 64.5653C133.646 64.8381 133.263 65.2216 132.99 65.7159C132.723 66.2102 132.589 66.7898 132.589 67.4545H130.578C130.578 66.4318 130.814 65.5341 131.286 64.7614C131.757 63.9886 132.399 63.3864 133.212 62.9545C134.03 62.5227 134.947 62.3068 135.964 62.3068C136.987 62.3068 137.893 62.5227 138.683 62.9545C139.473 63.3864 140.092 63.9687 140.541 64.7017C140.99 65.4347 141.214 66.25 141.214 67.1477C141.214 67.7898 141.098 68.4176 140.865 69.0312C140.638 69.6392 140.24 70.3182 139.672 71.0682C139.109 71.8125 138.328 72.7216 137.328 73.7955L133.408 77.9886V78.125H141.521V80H130.51ZM150.734 80.2386C149.45 80.2386 148.357 79.8892 147.453 79.1903C146.55 78.4858 145.859 77.4659 145.382 76.1307C144.905 74.7898 144.666 73.1705 144.666 71.2727C144.666 69.3864 144.905 67.7756 145.382 66.4403C145.865 65.0994 146.558 64.0767 147.462 63.3722C148.371 62.6619 149.462 62.3068 150.734 62.3068C152.007 62.3068 153.095 62.6619 153.999 63.3722C154.908 64.0767 155.601 65.0994 156.078 66.4403C156.561 67.7756 156.803 69.3864 156.803 71.2727C156.803 73.1705 156.564 74.7898 156.087 76.1307C155.609 77.4659 154.919 78.4858 154.016 79.1903C153.112 79.8892 152.018 80.2386 150.734 80.2386ZM150.734 78.3636C152.007 78.3636 152.996 77.75 153.7 76.5227C154.405 75.2955 154.757 73.5455 154.757 71.2727C154.757 69.7614 154.595 68.4744 154.271 67.4119C153.953 66.3494 153.493 65.5398 152.891 64.983C152.294 64.4261 151.575 64.1477 150.734 64.1477C149.473 64.1477 148.487 64.7699 147.777 66.0142C147.067 67.2528 146.712 69.0057 146.712 71.2727C146.712 72.7841 146.871 74.0682 147.189 75.125C147.507 76.1818 147.964 76.9858 148.561 77.5369C149.163 78.0881 149.888 78.3636 150.734 78.3636ZM160.041 80V78.4659L165.803 72.1591C166.479 71.4205 167.036 70.7784 167.473 70.233C167.911 69.6818 168.234 69.1648 168.445 68.6818C168.661 68.1932 168.768 67.6818 168.768 67.1477C168.768 66.5341 168.621 66.0028 168.325 65.554C168.036 65.1051 167.638 64.7585 167.132 64.5142C166.626 64.2699 166.058 64.1477 165.428 64.1477C164.757 64.1477 164.172 64.2869 163.672 64.5653C163.178 64.8381 162.794 65.2216 162.521 65.7159C162.254 66.2102 162.121 66.7898 162.121 67.4545H160.109C160.109 66.4318 160.345 65.5341 160.817 64.7614C161.288 63.9886 161.93 63.3864 162.743 62.9545C163.561 62.5227 164.479 62.3068 165.496 62.3068C166.518 62.3068 167.425 62.5227 168.214 62.9545C169.004 63.3864 169.624 63.9687 170.072 64.7017C170.521 65.4347 170.746 66.25 170.746 67.1477C170.746 67.7898 170.629 68.4176 170.396 69.0312C170.169 69.6392 169.771 70.3182 169.203 71.0682C168.641 71.8125 167.859 72.7216 166.859 73.7955L162.939 77.9886V78.125H171.053V80H160.041ZM173.788 76.4205V74.6818L181.459 62.5455H182.72V65.2386H181.868L176.072 74.4091V74.5455H186.402V76.4205H173.788ZM182.004 80V75.892V75.0824V62.5455H184.016V80H182.004Z" fill="white" fill-opacity="0.866667"/>
<path d="M30.5852 142V128.909H32.1705V134.739H39.1506V128.909H40.7358V142H39.1506V136.145H32.1705V142H30.5852ZM47.8214 142.205C46.8754 142.205 46.0593 141.996 45.3732 141.578C44.6914 141.156 44.1651 140.568 43.7944 139.814C43.4279 139.055 43.2447 138.173 43.2447 137.168C43.2447 136.162 43.4279 135.276 43.7944 134.509C44.1651 133.737 44.6808 133.136 45.3413 132.706C46.006 132.271 46.7816 132.054 47.668 132.054C48.1793 132.054 48.6843 132.139 49.1829 132.31C49.6815 132.48 50.1353 132.757 50.5444 133.141C50.9535 133.52 51.2795 134.023 51.5224 134.649C51.7653 135.276 51.8867 136.047 51.8867 136.963V137.602H44.3185V136.298H50.3526C50.3526 135.744 50.2418 135.25 50.0202 134.815C49.8029 134.381 49.4918 134.038 49.087 133.786C48.6864 133.535 48.2134 133.409 47.668 133.409C47.0671 133.409 46.5472 133.558 46.1083 133.857C45.6737 134.151 45.3391 134.534 45.1048 135.007C44.8704 135.48 44.7532 135.987 44.7532 136.528V137.398C44.7532 138.139 44.881 138.768 45.1367 139.283C45.3967 139.795 45.7567 140.185 46.217 140.453C46.6772 140.717 47.212 140.849 47.8214 140.849C48.2177 140.849 48.5756 140.794 48.8952 140.683C49.2191 140.568 49.4982 140.398 49.7326 140.172C49.967 139.942 50.1481 139.656 50.2759 139.315L51.7333 139.724C51.5799 140.219 51.3221 140.653 50.9599 141.028C50.5977 141.399 50.1502 141.689 49.6175 141.898C49.0849 142.102 48.4862 142.205 47.8214 142.205ZM57.0707 142.23C56.4485 142.23 55.8839 142.113 55.3768 141.879C54.8697 141.64 54.467 141.297 54.1687 140.849C53.8704 140.398 53.7212 139.852 53.7212 139.213C53.7212 138.651 53.832 138.195 54.0536 137.845C54.2752 137.491 54.5714 137.214 54.9421 137.014C55.3129 136.814 55.7219 136.665 56.1694 136.567C56.6211 136.464 57.0749 136.384 57.5309 136.324C58.1275 136.247 58.6112 136.19 58.9819 136.151C59.3569 136.109 59.6296 136.038 59.8001 135.94C59.9748 135.842 60.0621 135.672 60.0621 135.429V135.378C60.0621 134.747 59.8896 134.257 59.5444 133.908C59.2035 133.558 58.6857 133.384 57.9911 133.384C57.271 133.384 56.7063 133.541 56.2972 133.857C55.8881 134.172 55.6005 134.509 55.4343 134.866L54.0025 134.355C54.2582 133.759 54.5991 133.294 55.0252 132.962C55.4556 132.625 55.9244 132.391 56.4315 132.259C56.9428 132.122 57.4457 132.054 57.94 132.054C58.2553 132.054 58.6175 132.092 59.0266 132.169C59.44 132.241 59.8384 132.393 60.2219 132.623C60.6097 132.853 60.9315 133.2 61.1871 133.665C61.4428 134.129 61.5707 134.751 61.5707 135.531V142H60.0621V140.67H59.9854C59.8832 140.884 59.7127 141.112 59.4741 141.354C59.2354 141.597 58.918 141.804 58.5217 141.974C58.1254 142.145 57.6417 142.23 57.0707 142.23ZM57.3008 140.875C57.8974 140.875 58.4002 140.758 58.8093 140.523C59.2227 140.289 59.5337 139.987 59.7425 139.616C59.9556 139.245 60.0621 138.855 60.0621 138.446V137.065C59.9982 137.142 59.8576 137.212 59.6403 137.276C59.4272 137.336 59.18 137.389 58.8988 137.436C58.6218 137.479 58.3512 137.517 58.087 137.551C57.8271 137.581 57.6161 137.607 57.4542 137.628C57.0621 137.679 56.6957 137.762 56.3548 137.877C56.0181 137.988 55.7454 138.156 55.5366 138.382C55.332 138.604 55.2298 138.906 55.2298 139.29C55.2298 139.814 55.4237 140.21 55.8114 140.479C56.2035 140.743 56.6999 140.875 57.3008 140.875ZM65.8326 128.909V142H64.324V128.909H65.8326ZM72.8654 132.182V133.46H67.7773V132.182H72.8654ZM69.2603 129.83H70.7688V139.188C70.7688 139.614 70.8306 139.933 70.9542 140.146C71.082 140.355 71.244 140.496 71.44 140.568C71.6403 140.636 71.8512 140.67 72.0728 140.67C72.239 140.67 72.3754 140.662 72.4819 140.645C72.5884 140.624 72.6737 140.607 72.7376 140.594L73.0444 141.949C72.9421 141.987 72.7994 142.026 72.6161 142.064C72.4329 142.107 72.2006 142.128 71.9194 142.128C71.4933 142.128 71.0756 142.036 70.6665 141.853C70.2617 141.67 69.9251 141.391 69.6566 141.016C69.3924 140.641 69.2603 140.168 69.2603 139.597V129.83ZM76.854 136.094V142H75.3455V128.909H76.854V133.716H76.9819C77.212 133.209 77.5572 132.806 78.0174 132.508C78.4819 132.205 79.0998 132.054 79.8711 132.054C80.5401 132.054 81.1261 132.188 81.6289 132.457C82.1317 132.721 82.5217 133.128 82.7987 133.678C83.0799 134.223 83.2205 134.918 83.2205 135.761V142H81.712V135.864C81.712 135.084 81.5096 134.481 81.1048 134.055C80.7042 133.624 80.1481 133.409 79.4364 133.409C78.9421 133.409 78.4989 133.513 78.1069 133.722C77.7191 133.931 77.4123 134.236 77.1864 134.636C76.9648 135.037 76.854 135.523 76.854 136.094ZM89.9689 142.205C89.0485 142.205 88.2559 141.987 87.5911 141.553C86.9263 141.118 86.415 140.519 86.057 139.756C85.699 138.994 85.5201 138.122 85.5201 137.142C85.5201 136.145 85.7033 135.265 86.0698 134.502C86.4405 133.735 86.9561 133.136 87.6167 132.706C88.2814 132.271 89.057 132.054 89.9434 132.054C90.6337 132.054 91.2559 132.182 91.8098 132.438C92.3638 132.693 92.8176 133.051 93.1713 133.511C93.525 133.972 93.7445 134.509 93.8297 135.122H92.3212C92.2061 134.675 91.9505 134.278 91.5542 133.933C91.1621 133.584 90.6337 133.409 89.9689 133.409C89.3809 133.409 88.8652 133.562 88.4221 133.869C87.9831 134.172 87.6401 134.6 87.3929 135.154C87.15 135.704 87.0286 136.349 87.0286 137.091C87.0286 137.849 87.1479 138.51 87.3865 139.072C87.6294 139.635 87.9703 140.072 88.4093 140.383C88.8525 140.694 89.3723 140.849 89.9689 140.849C90.361 140.849 90.7168 140.781 91.0364 140.645C91.356 140.509 91.6266 140.312 91.8482 140.057C92.0698 139.801 92.2275 139.494 92.3212 139.136H93.8297C93.7445 139.716 93.5336 140.238 93.1969 140.702C92.8645 141.163 92.4235 141.529 91.8738 141.802C91.3283 142.07 90.6934 142.205 89.9689 142.205ZM98.9242 142.23C98.302 142.23 97.7374 142.113 97.2303 141.879C96.7232 141.64 96.3205 141.297 96.0222 140.849C95.7239 140.398 95.5748 139.852 95.5748 139.213C95.5748 138.651 95.6855 138.195 95.9071 137.845C96.1287 137.491 96.4249 137.214 96.7956 137.014C97.1664 136.814 97.5755 136.665 98.0229 136.567C98.4746 136.464 98.9284 136.384 99.3844 136.324C99.981 136.247 100.465 136.19 100.835 136.151C101.21 136.109 101.483 136.038 101.654 135.94C101.828 135.842 101.916 135.672 101.916 135.429V135.378C101.916 134.747 101.743 134.257 101.398 133.908C101.057 133.558 100.539 133.384 99.8446 133.384C99.1245 133.384 98.5598 133.541 98.1507 133.857C97.7417 134.172 97.454 134.509 97.2878 134.866L95.856 134.355C96.1117 133.759 96.4526 133.294 96.8787 132.962C97.3091 132.625 97.7779 132.391 98.285 132.259C98.7963 132.122 99.2992 132.054 99.7935 132.054C100.109 132.054 100.471 132.092 100.88 132.169C101.294 132.241 101.692 132.393 102.075 132.623C102.463 132.853 102.785 133.2 103.041 133.665C103.296 134.129 103.424 134.751 103.424 135.531V142H101.916V140.67H101.839C101.737 140.884 101.566 141.112 101.328 141.354C101.089 141.597 100.771 141.804 100.375 141.974C99.9789 142.145 99.4952 142.23 98.9242 142.23ZM99.1543 140.875C99.7509 140.875 100.254 140.758 100.663 140.523C101.076 140.289 101.387 139.987 101.596 139.616C101.809 139.245 101.916 138.855 101.916 138.446V137.065C101.852 137.142 101.711 137.212 101.494 137.276C101.281 137.336 101.034 137.389 100.752 137.436C100.475 137.479 100.205 137.517 99.9405 137.551C99.6806 137.581 99.4696 137.607 99.3077 137.628C98.9157 137.679 98.5492 137.762 98.2083 137.877C97.8716 137.988 97.5989 138.156 97.3901 138.382C97.1855 138.604 97.0833 138.906 97.0833 139.29C97.0833 139.814 97.2772 140.21 97.665 140.479C98.057 140.743 98.5534 140.875 99.1543 140.875ZM106.178 142V132.182H107.635V133.665H107.737C107.916 133.179 108.24 132.785 108.709 132.482C109.178 132.18 109.706 132.028 110.294 132.028C110.405 132.028 110.543 132.031 110.71 132.035C110.876 132.039 111.001 132.045 111.087 132.054V133.588C111.036 133.575 110.918 133.556 110.735 133.531C110.556 133.501 110.366 133.486 110.166 133.486C109.689 133.486 109.263 133.586 108.888 133.786C108.517 133.982 108.223 134.255 108.006 134.604C107.793 134.95 107.686 135.344 107.686 135.787V142H106.178ZM116.692 142.205C115.746 142.205 114.93 141.996 114.244 141.578C113.562 141.156 113.036 140.568 112.665 139.814C112.299 139.055 112.116 138.173 112.116 137.168C112.116 136.162 112.299 135.276 112.665 134.509C113.036 133.737 113.552 133.136 114.212 132.706C114.877 132.271 115.653 132.054 116.539 132.054C117.05 132.054 117.555 132.139 118.054 132.31C118.553 132.48 119.006 132.757 119.415 133.141C119.825 133.52 120.151 134.023 120.393 134.649C120.636 135.276 120.758 136.047 120.758 136.963V137.602H113.19V136.298H119.224C119.224 135.744 119.113 135.25 118.891 134.815C118.674 134.381 118.363 134.038 117.958 133.786C117.558 133.535 117.085 133.409 116.539 133.409C115.938 133.409 115.418 133.558 114.979 133.857C114.545 134.151 114.21 134.534 113.976 135.007C113.741 135.48 113.624 135.987 113.624 136.528V137.398C113.624 138.139 113.752 138.768 114.008 139.283C114.268 139.795 114.628 140.185 115.088 140.453C115.548 140.717 116.083 140.849 116.692 140.849C117.089 140.849 117.447 140.794 117.766 140.683C118.09 140.568 118.369 140.398 118.604 140.172C118.838 139.942 119.019 139.656 119.147 139.315L120.604 139.724C120.451 140.219 120.193 140.653 119.831 141.028C119.469 141.399 119.021 141.689 118.489 141.898C117.956 142.102 117.357 142.205 116.692 142.205Z" fill="black"/>
<rect x="186.391" y="122.391" width="23.9076" height="23.9076" rx="4.78152" fill="#2D9CDB"/>
<path d="M192.965 135.181L196.381 138.528L203.724 130.161" stroke="white" stroke-width="2.39076" stroke-linecap="round" stroke-linejoin="round"/>
<g filter="url(#filter2_d_1_170)">
<rect x="17" y="169" width="210" height="57" rx="12" fill="#FDFDFD"/>
</g>
<path d="M41.1193 197H39.5341C39.4403 196.544 39.2763 196.143 39.0419 195.798C38.8118 195.453 38.5305 195.163 38.1982 194.929C37.87 194.69 37.5057 194.511 37.1051 194.392C36.7045 194.273 36.2869 194.213 35.8523 194.213C35.0597 194.213 34.3416 194.413 33.6982 194.814C33.0589 195.214 32.5497 195.805 32.1705 196.585C31.7955 197.364 31.608 198.321 31.608 199.455C31.608 200.588 31.7955 201.545 32.1705 202.325C32.5497 203.104 33.0589 203.695 33.6982 204.095C34.3416 204.496 35.0597 204.696 35.8523 204.696C36.2869 204.696 36.7045 204.636 37.1051 204.517C37.5057 204.398 37.87 204.221 38.1982 203.987C38.5305 203.748 38.8118 203.456 39.0419 203.111C39.2763 202.761 39.4403 202.361 39.5341 201.909H41.1193C41 202.578 40.7827 203.177 40.4673 203.705C40.152 204.234 39.7599 204.683 39.2912 205.054C38.8224 205.42 38.2962 205.7 37.7124 205.891C37.1328 206.083 36.5128 206.179 35.8523 206.179C34.7358 206.179 33.7429 205.906 32.8736 205.361C32.0043 204.815 31.3203 204.04 30.8217 203.034C30.3232 202.028 30.0739 200.835 30.0739 199.455C30.0739 198.074 30.3232 196.881 30.8217 195.875C31.3203 194.869 32.0043 194.094 32.8736 193.548C33.7429 193.003 34.7358 192.73 35.8523 192.73C36.5128 192.73 37.1328 192.826 37.7124 193.018C38.2962 193.21 38.8224 193.491 39.2912 193.862C39.7599 194.228 40.152 194.675 40.4673 195.204C40.7827 195.728 41 196.327 41.1193 197ZM47.5929 206.205C46.6468 206.205 45.8308 205.996 45.1447 205.578C44.4629 205.156 43.9366 204.568 43.5659 203.814C43.1994 203.055 43.0162 202.173 43.0162 201.168C43.0162 200.162 43.1994 199.276 43.5659 198.509C43.9366 197.737 44.4522 197.136 45.1127 196.706C45.7775 196.271 46.5531 196.054 47.4395 196.054C47.9508 196.054 48.4558 196.139 48.9544 196.31C49.4529 196.48 49.9068 196.757 50.3159 197.141C50.725 197.52 51.051 198.023 51.2939 198.649C51.5368 199.276 51.6582 200.047 51.6582 200.963V201.602H44.09V200.298H50.1241C50.1241 199.744 50.0133 199.25 49.7917 198.815C49.5744 198.381 49.2633 198.038 48.8585 197.786C48.4579 197.535 47.9849 197.409 47.4395 197.409C46.8386 197.409 46.3187 197.558 45.8798 197.857C45.4451 198.151 45.1106 198.534 44.8762 199.007C44.6419 199.48 44.5247 199.987 44.5247 200.528V201.398C44.5247 202.139 44.6525 202.768 44.9082 203.283C45.1681 203.795 45.5282 204.185 45.9885 204.453C46.4487 204.717 46.9835 204.849 47.5929 204.849C47.9892 204.849 48.3471 204.794 48.6667 204.683C48.9906 204.568 49.2697 204.398 49.5041 204.172C49.7385 203.942 49.9196 203.656 50.0474 203.315L51.5048 203.724C51.3514 204.219 51.0936 204.653 50.7314 205.028C50.3691 205.399 49.9217 205.689 49.389 205.898C48.8564 206.102 48.2576 206.205 47.5929 206.205ZM55.4615 192.909V206H53.9529V192.909H55.4615ZM59.733 192.909V206H58.2244V192.909H59.733ZM74.9221 196.182C74.8453 195.534 74.5343 195.031 73.9888 194.673C73.4434 194.315 72.7743 194.136 71.9817 194.136C71.4022 194.136 70.8951 194.23 70.4604 194.418C70.03 194.605 69.6934 194.863 69.4505 195.191C69.2118 195.519 69.0925 195.892 69.0925 196.31C69.0925 196.659 69.1756 196.96 69.3418 197.211C69.5123 197.458 69.7296 197.665 69.9938 197.831C70.258 197.993 70.535 198.127 70.8248 198.234C71.1145 198.336 71.3809 198.419 71.6238 198.483L72.9533 198.841C73.2942 198.93 73.6735 199.054 74.0911 199.212C74.513 199.369 74.9157 199.585 75.2992 199.857C75.687 200.126 76.0066 200.471 76.258 200.893C76.5094 201.315 76.6351 201.832 76.6351 202.446C76.6351 203.153 76.4498 203.793 76.079 204.364C75.7125 204.935 75.1756 205.388 74.4682 205.725C73.7651 206.062 72.9107 206.23 71.905 206.23C70.9675 206.23 70.1557 206.079 69.4696 205.776C68.7878 205.474 68.2509 205.052 67.8588 204.511C67.4711 203.969 67.2516 203.341 67.2005 202.625H68.8368C68.8794 203.119 69.0456 203.528 69.3354 203.852C69.6294 204.172 70.0002 204.411 70.4476 204.568C70.8993 204.722 71.3851 204.798 71.905 204.798C72.5101 204.798 73.0534 204.7 73.535 204.504C74.0165 204.304 74.3979 204.027 74.6792 203.673C74.9604 203.315 75.101 202.898 75.101 202.42C75.101 201.986 74.9796 201.632 74.7367 201.359C74.4938 201.087 74.1742 200.865 73.7779 200.695C73.3816 200.524 72.9533 200.375 72.4931 200.247L70.8823 199.787C69.8596 199.493 69.0499 199.073 68.4533 198.528C67.8567 197.982 67.5584 197.268 67.5584 196.386C67.5584 195.653 67.7566 195.014 68.1529 194.469C68.5534 193.919 69.0904 193.493 69.7637 193.19C70.4412 192.884 71.1976 192.73 72.0328 192.73C72.8766 192.73 73.6266 192.881 74.2828 193.184C74.9391 193.482 75.459 193.891 75.8425 194.411C76.2303 194.931 76.4348 195.521 76.4561 196.182H74.9221ZM83.1534 206.205C82.2074 206.205 81.3913 205.996 80.7053 205.578C80.0234 205.156 79.4972 204.568 79.1264 203.814C78.7599 203.055 78.5767 202.173 78.5767 201.168C78.5767 200.162 78.7599 199.276 79.1264 198.509C79.4972 197.737 80.0128 197.136 80.6733 196.706C81.3381 196.271 82.1136 196.054 83 196.054C83.5114 196.054 84.0163 196.139 84.5149 196.31C85.0135 196.48 85.4673 196.757 85.8764 197.141C86.2855 197.52 86.6115 198.023 86.8544 198.649C87.0973 199.276 87.2188 200.047 87.2188 200.963V201.602H79.6506V200.298H85.6847C85.6847 199.744 85.5739 199.25 85.3523 198.815C85.1349 198.381 84.8239 198.038 84.419 197.786C84.0185 197.535 83.5455 197.409 83 197.409C82.3991 197.409 81.8793 197.558 81.4403 197.857C81.0057 198.151 80.6712 198.534 80.4368 199.007C80.2024 199.48 80.0852 199.987 80.0852 200.528V201.398C80.0852 202.139 80.2131 202.768 80.4688 203.283C80.7287 203.795 81.0888 204.185 81.549 204.453C82.0092 204.717 82.544 204.849 83.1534 204.849C83.5497 204.849 83.9077 204.794 84.2273 204.683C84.5511 204.568 84.8303 204.398 85.0646 204.172C85.299 203.942 85.4801 203.656 85.608 203.315L87.0653 203.724C86.9119 204.219 86.6541 204.653 86.2919 205.028C85.9297 205.399 85.4822 205.689 84.9496 205.898C84.4169 206.102 83.8182 206.205 83.1534 206.205ZM89.5135 206V196.182H90.9709V197.665H91.0732C91.2521 197.179 91.576 196.785 92.0447 196.482C92.5135 196.18 93.0419 196.028 93.63 196.028C93.7408 196.028 93.8793 196.031 94.0455 196.035C94.2116 196.039 94.3374 196.045 94.4226 196.054V197.588C94.3714 197.575 94.2543 197.556 94.071 197.531C93.892 197.501 93.7024 197.486 93.5021 197.486C93.0249 197.486 92.5987 197.586 92.2237 197.786C91.853 197.982 91.5589 198.255 91.3416 198.604C91.1286 198.95 91.022 199.344 91.022 199.787V206H89.5135ZM104.538 196.182L100.907 206H99.3732L95.7425 196.182H97.3789L100.089 204.006H100.191L102.902 196.182H104.538ZM106.529 206V196.182H108.038V206H106.529ZM107.296 194.545C107.002 194.545 106.749 194.445 106.536 194.245C106.327 194.045 106.222 193.804 106.222 193.523C106.222 193.241 106.327 193.001 106.536 192.8C106.749 192.6 107.002 192.5 107.296 192.5C107.59 192.5 107.842 192.6 108.05 192.8C108.263 193.001 108.37 193.241 108.37 193.523C108.37 193.804 108.263 194.045 108.05 194.245C107.842 194.445 107.59 194.545 107.296 194.545ZM114.789 206.205C113.869 206.205 113.076 205.987 112.411 205.553C111.747 205.118 111.235 204.519 110.877 203.756C110.519 202.994 110.34 202.122 110.34 201.142C110.34 200.145 110.524 199.265 110.89 198.502C111.261 197.735 111.776 197.136 112.437 196.706C113.102 196.271 113.877 196.054 114.764 196.054C115.454 196.054 116.076 196.182 116.63 196.438C117.184 196.693 117.638 197.051 117.992 197.511C118.345 197.972 118.565 198.509 118.65 199.122H117.142C117.026 198.675 116.771 198.278 116.374 197.933C115.982 197.584 115.454 197.409 114.789 197.409C114.201 197.409 113.686 197.562 113.242 197.869C112.803 198.172 112.46 198.6 112.213 199.154C111.97 199.704 111.849 200.349 111.849 201.091C111.849 201.849 111.968 202.51 112.207 203.072C112.45 203.635 112.791 204.072 113.23 204.383C113.673 204.694 114.193 204.849 114.789 204.849C115.181 204.849 115.537 204.781 115.857 204.645C116.176 204.509 116.447 204.312 116.669 204.057C116.89 203.801 117.048 203.494 117.142 203.136H118.65C118.565 203.716 118.354 204.238 118.017 204.702C117.685 205.163 117.244 205.529 116.694 205.802C116.149 206.07 115.514 206.205 114.789 206.205ZM124.972 206.205C124.026 206.205 123.21 205.996 122.524 205.578C121.842 205.156 121.316 204.568 120.945 203.814C120.578 203.055 120.395 202.173 120.395 201.168C120.395 200.162 120.578 199.276 120.945 198.509C121.316 197.737 121.831 197.136 122.492 196.706C123.156 196.271 123.932 196.054 124.818 196.054C125.33 196.054 125.835 196.139 126.333 196.31C126.832 196.48 127.286 196.757 127.695 197.141C128.104 197.52 128.43 198.023 128.673 198.649C128.916 199.276 129.037 200.047 129.037 200.963V201.602H121.469V200.298H127.503C127.503 199.744 127.392 199.25 127.171 198.815C126.953 198.381 126.642 198.038 126.237 197.786C125.837 197.535 125.364 197.409 124.818 197.409C124.218 197.409 123.698 197.558 123.259 197.857C122.824 198.151 122.49 198.534 122.255 199.007C122.021 199.48 121.904 199.987 121.904 200.528V201.398C121.904 202.139 122.031 202.768 122.287 203.283C122.547 203.795 122.907 204.185 123.367 204.453C123.828 204.717 124.362 204.849 124.972 204.849C125.368 204.849 125.726 204.794 126.046 204.683C126.369 204.568 126.649 204.398 126.883 204.172C127.117 203.942 127.298 203.656 127.426 203.315L128.884 203.724C128.73 204.219 128.472 204.653 128.11 205.028C127.748 205.399 127.301 205.689 126.768 205.898C126.235 206.102 125.637 206.205 124.972 206.205Z" fill="black"/>
<rect x="186.391" y="186.391" width="23.9076" height="23.9076" rx="4.78152" fill="#2D9CDB"/>
<path d="M192.965 199.181L196.381 202.528L203.724 194.161" stroke="white" stroke-width="2.39076" stroke-linecap="round" stroke-linejoin="round"/>
<defs>
<filter id="filter0_d_1_170" x="13" y="29" width="218" height="77" filterUnits="userSpaceOnUse" color-interpolation-filters="sRGB">
<feFlood flood-opacity="0" result="BackgroundImageFix"/>
<feColorMatrix in="SourceAlpha" type="matrix" values="0 0 0 0 0 0 0 0 0 0 0 0 0 0 0 0 0 0 127 0" result="hardAlpha"/>
<feOffset dy="4"/>
<feGaussianBlur stdDeviation="2"/>
<feComposite in2="hardAlpha" operator="out"/>
<feColorMatrix type="matrix" values="0 0 0 0 0 0 0 0 0 0 0 0 0 0 0 0 0 0 0.25 0"/>
<feBlend mode="normal" in2="BackgroundImageFix" result="effect1_dropShadow_1_170"/>
<feBlend mode="normal" in="SourceGraphic" in2="effect1_dropShadow_1_170" result="shape"/>
</filter>
<filter id="filter1_d_1_170" x="13" y="105" width="218" height="65" filterUnits="userSpaceOnUse" color-interpolation-filters="sRGB">
<feFlood flood-opacity="0" result="BackgroundImageFix"/>
<feColorMatrix in="SourceAlpha" type="matrix" values="0 0 0 0 0 0 0 0 0 0 0 0 0 0 0 0 0 0 127 0" result="hardAlpha"/>
<feOffset dy="4"/>
<feGaussianBlur stdDeviation="2"/>
<feComposite in2="hardAlpha" operator="out"/>
<feColorMatrix type="matrix" values="0 0 0 0 0 0 0 0 0 0 0 0 0 0 0 0 0 0 0.25 0"/>
<feBlend mode="normal" in2="BackgroundImageFix" result="effect1_dropShadow_1_170"/>
<feBlend mode="normal" in="SourceGraphic" in2="effect1_dropShadow_1_170" result="shape"/>
</filter>
<filter id="filter2_d_1_170" x="13" y="169" width="218" height="65" filterUnits="userSpaceOnUse" color-interpolation-filters="sRGB">
<feFlood flood-opacity="0" result="BackgroundImageFix"/>
<feColorMatrix in="SourceAlpha" type="matrix" values="0 0 0 0 0 0 0 0 0 0 0 0 0 0 0 0 0 0 127 0" result="hardAlpha"/>
<feOffset dy="4"/>
<feGaussianBlur stdDeviation="2"/>
<feComposite in2="hardAlpha" operator="out"/>
<feColorMatrix type="matrix" values="0 0 0 0 0 0 0 0 0 0 0 0 0 0 0 0 0 0 0.25 0"/>
<feBlend mode="normal" in2="BackgroundImageFix" result="effect1_dropShadow_1_170"/>
<feBlend mode="normal" in="SourceGraphic" in2="effect1_dropShadow_1_170" result="shape"/>
</filter>
</defs>
</svg>
